<svg width="180" height="46" viewBox="0 0 180 46" fill="none" xmlns="http://www.w3.org/2000/svg">
<path d="M55.1711 7.23248H58.1862L61.9078 15.9447L65.9714 7.23248H68.9527L63.2106 18.9755H60.3935L55.1711 7.23248Z" fill="white"/>
<path d="M94.6328 7.53433C94.6328 6.70181 95.1571 6.4093 96.0728 6.4093C96.9886 6.4093 97.5151 6.69731 97.5151 7.53433C97.5151 8.33085 97.0426 8.67511 96.0728 8.67511C95.0513 8.68411 94.6328 8.39835 94.6328 7.53433ZM94.6328 9.52338H97.5151V18.9736H94.6328V9.52338Z" fill="white"/>
<path d="M148.888 27.3187C148.888 26.4862 149.413 26.1937 150.328 26.1937C151.244 26.1937 151.771 26.4817 151.771 27.3187C151.771 28.1152 151.298 28.4595 150.328 28.4595C149.307 28.4595 148.888 28.1827 148.888 27.3187ZM148.888 29.3077H151.771V38.758H148.888V29.3077Z" fill="white"/>
<path d="M69.9431 7.53433C69.9431 6.70181 70.4674 6.4093 71.3831 6.4093C72.2989 6.4093 72.8232 6.69731 72.8232 7.53433C72.8232 8.33085 72.3529 8.67511 71.3831 8.67511C70.3616 8.68411 69.9431 8.39835 69.9431 7.53433ZM69.9431 9.52338H72.8232V18.9736H69.9431V9.52338Z" fill="white"/>
<path d="M75.3137 6.45886H78.1218V18.9759H75.3137V6.45886Z" fill="white"/>
<path d="M80.6331 18.9757V9.52547H83.0721L83.2971 11.5843C84.0554 10.1015 85.4707 9.17896 87.5452 9.17896C88.4261 9.14845 89.2998 9.34692 90.081 9.75497C91.4648 10.5132 92.2231 11.9128 92.2231 13.8051V18.9802H89.3948V14.4801C89.3948 12.5518 88.704 11.4335 86.6115 11.4335C84.4222 11.4335 83.4839 12.5698 83.4839 14.7928V18.9757H80.6331Z" fill="white"/>
<path d="M104.398 19.2887C101.473 19.2887 99.8982 17.5269 99.8982 14.6941V9.51898H102.729V14.1338C102.729 16.0104 103.487 16.9982 105.562 16.9982C107.373 16.9982 108.329 15.8461 108.329 13.9696V9.52348H111.178V18.9737H108.763L108.516 16.8317C107.89 18.3324 106.522 19.2887 104.398 19.2887Z" fill="white"/>
<path d="M112.773 15.8459H115.984C116.297 16.7684 117.109 17.1465 119.294 17.1465C121.352 17.1465 121.944 16.7347 121.944 16.0777C121.944 15.7627 121.814 15.5827 121.334 15.4679C120.855 15.3532 119.919 15.2699 118.337 15.2204C114.584 15.1057 113.117 14.3204 113.117 12.4528C113.102 11.8423 113.306 11.2466 113.693 10.7743C114.467 9.78652 116 9.17676 118.405 9.17676C121.96 9.17676 123.888 10.1803 124.579 12.4708H121.559C121.294 11.4988 120.142 11.2018 118.38 11.2018C117.851 11.1789 117.321 11.2289 116.805 11.3503C116.081 11.5483 115.835 11.8768 115.835 12.2233C115.835 12.5023 115.916 12.7003 116.378 12.8488C116.839 12.9974 117.728 13.0626 119.303 13.1279C121.46 13.2111 122.826 13.4406 123.616 13.9019C124.406 14.3631 124.721 15.0269 124.721 16.0102C124.721 17.9047 122.842 19.2885 119.154 19.2885C115.268 19.2885 113.259 18.1837 112.773 15.8459Z" fill="white"/>
<path d="M62.7811 38.738H59.9482V29.3507H55.7339V26.9949H67.1957V29.3507H62.7811V38.738Z" fill="white"/>
<path d="M72.6793 39.0598C71.1808 39.0598 69.995 38.8348 69.0905 38.45C67.2904 37.6107 66.5862 36.128 66.5862 34.2019C66.5772 33.2874 66.8167 32.3876 67.2792 31.5986C68.2332 29.9853 70.0603 28.948 72.8931 28.948C74.043 28.917 75.1868 29.1246 76.2524 29.5578C78.1132 30.3813 79.119 31.8956 79.119 34.0197V35.0097H69.239C69.5675 36.245 70.6205 36.8862 72.9111 36.8862C74.6391 36.8862 75.4627 36.5577 75.9239 35.9142H79.0042C77.9827 38.261 75.8092 39.0598 72.6793 39.0598ZM69.3042 33.0319H76.3514C76.0387 31.6481 75.0014 31.0901 72.9763 31.0901C70.8838 31.0811 69.698 31.7876 69.3042 33.0229V33.0319Z" fill="white"/>
<path d="M92.7047 36.909C91.7326 38.259 89.9213 39.051 87.0795 39.051C85.581 39.051 84.3795 38.853 83.4569 38.4412C81.6456 37.6515 80.8896 36.1349 80.8896 34.0784C80.8682 33.1102 81.1378 32.1578 81.6636 31.3446C82.7099 29.7965 84.6472 28.9348 87.1718 28.9348C90.9969 28.9348 93.1817 30.5098 93.5282 33.3156H90.5154C90.2678 31.9003 89.2958 31.1916 87.2055 31.1916C84.8835 31.1916 83.7472 32.1298 83.7472 34.0739C83.7472 35.8739 84.7687 36.7582 87.1718 36.7582C89.3791 36.7582 90.3016 35.9842 90.5154 34.5666H93.5282C93.4796 35.4094 93.1941 36.2213 92.7047 36.909Z" fill="white"/>
<path d="M95.3911 38.7379V26.2208H98.0912V31.2114C98.7999 29.8344 100.172 28.9344 102.198 28.9344C103.073 28.903 103.942 29.1016 104.718 29.5104C106.101 30.2687 106.842 31.6682 106.842 33.5605V38.7356H104.02V34.3908C104.023 33.8212 103.94 33.2545 103.773 32.71C103.426 31.738 102.648 31.1777 101.268 31.1777C99.079 31.1777 98.0912 32.3027 98.0912 34.5213V38.7379H95.3911Z" fill="white"/>
<path d="M112.188 38.738H109.47V26.9949H120.355V29.434H112.188V32.0688H120.126V34.5214H112.188V38.738Z" fill="white"/>
<path d="M126.566 39.0596C123.641 39.0596 122.052 37.2979 122.052 34.465V29.2899H124.885V33.9003C124.885 35.7768 125.643 36.7668 127.718 36.7668C129.529 36.7668 130.485 35.6126 130.485 33.736V29.2854H133.334V38.7356H130.928L130.681 36.5936C130.055 38.0944 128.69 39.0596 126.566 39.0596Z" fill="white"/>
<path d="M134.947 35.6084H138.158C138.47 36.5309 139.283 36.9089 141.47 36.9089C143.526 36.9089 144.12 36.4971 144.12 35.8401C144.12 35.5274 143.988 35.3451 143.51 35.2304C143.033 35.1156 142.095 35.0324 140.513 34.9829C136.758 34.8681 135.293 34.0941 135.293 32.2175C135.276 31.6061 135.481 31.0092 135.869 30.5367C136.643 29.549 138.176 28.9392 140.579 28.9392C144.136 28.9392 146.062 29.945 146.755 32.2333H143.724C143.461 31.2613 142.309 30.9643 140.547 30.9643C140.018 30.9411 139.488 30.9911 138.972 31.1128C138.248 31.3108 138 31.6393 138 31.9858C138 32.267 138.083 32.4628 138.545 32.6113C139.006 32.7598 139.895 32.8251 141.47 32.8926C143.625 32.9736 144.993 33.2053 145.783 33.6666C146.573 34.1278 146.886 34.7916 146.886 35.7726C146.886 37.6672 145.009 39.051 141.321 39.051C137.433 39.06 135.424 37.9484 134.947 35.6084Z" fill="white"/>
<path d="M156.323 38.4409C154.523 37.6511 153.755 36.1345 153.755 34.078C153.734 33.1098 154.004 32.1574 154.529 31.3442C155.567 29.7961 157.493 28.9344 160.024 28.9344C161.169 28.905 162.307 29.1126 163.368 29.5441C165.262 30.3677 166.315 31.8819 166.315 34.0735C166.339 34.9867 166.105 35.8881 165.64 36.6746C164.749 38.1776 162.927 39.0596 159.947 39.0596C158.449 39.0596 157.245 38.8526 156.323 38.4409ZM163.471 34.078C163.471 32.1835 162.465 31.1957 160.062 31.1957C157.74 31.1957 156.604 32.1339 156.604 34.078C156.604 35.878 157.625 36.7623 160.028 36.7623C162.549 36.7623 163.471 35.8218 163.471 34.078Z" fill="white"/>
<path d="M168.412 38.7379V29.2877H170.849L171.074 31.3465C171.837 29.8615 173.254 28.9345 175.325 28.9345C176.205 28.9053 177.079 29.1037 177.86 29.5105C179.244 30.2687 180 31.6683 180 33.5606V38.7357H177.172V34.2356C177.172 32.3073 176.481 31.189 174.391 31.189C172.199 31.189 171.261 32.314 171.261 34.5483V38.7312L168.412 38.7379Z" fill="white"/>
<path d="M45.5953 17.6595C45.4355 16.9463 45.2442 16.2443 45.0192 15.558L23.1599 18.0083C23.1069 18.015 23.0532 18.015 23.0002 18.0083L1.14315 15.558C0.918147 16.233 0.726893 16.9463 0.567139 17.6595L22.9957 20.1751C23.0488 20.1796 23.1023 20.1796 23.1554 20.1751L45.5953 17.6595Z" fill="white"/>
<path d="M43.4912 11.9583C43.1423 11.2907 42.76 10.6411 42.3459 10.012L23.2474 14.2871C23.1436 14.3096 23.0362 14.3096 22.9324 14.2871L3.82493 10.012C3.40773 10.6409 3.02249 11.2905 2.67065 11.9583L22.9212 16.4989C23.025 16.5214 23.1324 16.5214 23.2362 16.4989L43.4912 11.9583Z" fill="white"/>
<path d="M40.0959 7.13144C39.5502 6.53957 38.9749 5.97559 38.3724 5.44165L23.3195 10.5043C23.1733 10.5517 23.0157 10.5517 22.8695 10.5043L7.81661 5.44165C7.2166 5.97716 6.64133 6.54043 6.09082 7.13144L22.8695 12.7746C23.0157 12.822 23.1733 12.822 23.3195 12.7746L40.0959 7.13144Z" fill="white"/>
<path d="M35.731 3.43019C34.9896 2.94428 34.2211 2.50105 33.4292 2.10266L23.3737 6.60277C23.2817 6.64399 23.182 6.66529 23.0812 6.66529C22.9804 6.66529 22.8807 6.64399 22.7887 6.60277L12.7332 2.10266C11.941 2.50055 11.1725 2.9438 10.4314 3.43019L22.7887 8.96983C22.8807 9.01105 22.9804 9.03235 23.0812 9.03235C23.182 9.03235 23.2817 9.01105 23.3737 8.96983L35.731 3.43019Z" fill="white"/>
<path d="M30.7606 0.966371C29.8049 0.627324 28.8277 0.35221 27.8355 0.14285L23.4321 2.60891C23.3251 2.66966 23.2042 2.70159 23.0811 2.70159C22.9581 2.70159 22.8371 2.66966 22.7301 2.60891L18.3335 0.13385C17.3413 0.34321 16.3641 0.618324 15.4084 0.957371L22.7301 5.08397C22.8375 5.14367 22.9583 5.175 23.0811 5.175C23.204 5.175 23.3248 5.14367 23.4321 5.08397L30.7606 0.966371Z" fill="white"/>
<path d="M46.1711 22.7337C46.1711 22.3714 46.1599 22.0136 46.1441 21.6559H0.0270006C0.0112503 22.0136 0 22.3714 0 22.7337C0 23.0959 -2.51463e-08 23.4514 0.0270006 23.8092H46.1351C46.1509 23.4514 46.1711 23.0847 46.1711 22.7337Z" fill="white"/>
<path d="M45.0192 29.9066C45.2442 29.2315 45.4355 28.5183 45.5953 27.805L23.1599 25.2917C23.1069 25.2849 23.0532 25.2849 23.0002 25.2917L0.567139 27.8095C0.726893 28.5228 0.918147 29.2248 1.14315 29.9111L22.9957 27.4562C23.0487 27.4495 23.1024 27.4495 23.1554 27.4562L45.0192 29.9066Z" fill="white"/>
<path d="M42.3463 35.4595C42.7633 34.8325 43.1481 34.1838 43.5006 33.5133L23.2501 28.9704C23.1463 28.9479 23.0389 28.9479 22.9351 28.9704L2.68457 33.5133C3.02508 34.1793 3.40534 34.828 3.82535 35.4595L22.9238 31.1844C23.0274 31.1596 23.1353 31.1596 23.2388 31.1844L42.3463 35.4595Z" fill="white"/>
<path d="M38.3635 40.0228C38.9666 39.4895 39.5419 38.9255 40.0871 38.333L23.3107 32.6899C23.1644 32.6424 23.0069 32.6424 22.8607 32.6899L6.073 38.333C6.62051 38.924 7.19578 39.4873 7.79879 40.0228L22.8517 34.9602C22.9979 34.9127 23.1554 34.9127 23.3017 34.9602L38.3635 40.0228Z" fill="white"/>
<path d="M33.4292 43.3619C34.2211 42.9636 34.9896 42.5203 35.731 42.0344L23.3737 36.4948C23.2817 36.4536 23.182 36.4323 23.0812 36.4323C22.9804 36.4323 22.8807 36.4536 22.7887 36.4948L10.4314 42.0344C11.1728 42.5203 11.9413 42.9636 12.7332 43.3619L22.7887 38.8618C22.8807 38.8206 22.9804 38.7993 23.0812 38.7993C23.182 38.7993 23.2817 38.8206 23.3737 38.8618L33.4292 43.3619Z" fill="white"/>
<path d="M27.8289 45.3215C28.8211 45.1121 29.7983 44.837 30.754 44.498L23.4256 40.3916C23.3185 40.3309 23.1976 40.299 23.0745 40.299C22.9515 40.299 22.8305 40.3309 22.7235 40.3916L15.4019 44.498C16.3575 44.837 17.3347 45.1121 18.3269 45.3215L22.7235 42.8464C22.8309 42.7867 22.9517 42.7554 23.0745 42.7554C23.1974 42.7554 23.3182 42.7867 23.4256 42.8464L27.8289 45.3215Z" fill="white"/>
</svg>
